<?xml version="1.0" encoding="UTF-8" standalone="no"?>
<svg
   width="200"
   height="280"
   viewBox="0 0 200 280"
   version="1.1"
   id="svg2"
   xmlns="http://www.w3.org/2000/svg"
   xmlns:svg="http://www.w3.org/2000/svg">
  <defs
     id="defs2" />
  <rect
     x="5"
     y="5"
     width="190"
     height="270"
     rx="12"
     fill="#FFFFFF"
     stroke="#D8D8D8"
     stroke-width="3"
     id="rect1" />
  <path
     d="m 120.288,54.696 -3.392,4.288 H 74.208 l 0.576,1.856 h 50.112 c 0.96,0 1.6,-0.32 1.728,-1.024 -2.368,-2.176 -6.336,-5.12 -6.336,-5.12 z m -6.016,20.928 -3.392,4.16 h -32 l 0.512,1.92 h 39.36 c 0.96,0 1.6,-0.32 1.664,-1.024 -2.304,-2.112 -6.144,-5.056 -6.144,-5.056 z m 9.152,22.72 -3.648,4.48 H 70.624 l 0.576,1.92 h 57.024 c 0.896,0 1.536,-0.32 1.728,-1.024 -2.496,-2.304 -6.528,-5.376 -6.528,-5.376 z"
     id="text1"
     style="font-size:64px;font-family:'Noto Serif CJK TC';text-anchor:middle;fill:#111111"
     aria-label="三" />
  <path
     d="m 122.68,142.06 -2.58,3.24 h -6.42 v -3.66 c 1.32,-0.12 1.74,-0.66 1.92,-1.38 l -5.82,-0.6 v 5.64 h -8.34 l 0.48,1.8 h 7.86 v 4.92 h 0.72 c 1.5,0 3.18,-0.84 3.18,-1.26 v -3.66 h 12.12 c 0.84,0 1.38,-0.3 1.56,-0.96 -1.74,-1.8 -4.68,-4.08 -4.68,-4.08 z m -27.18,0 -2.52,3.24 h -3.9 v -3.54 c 1.26,-0.12 1.74,-0.66 1.92,-1.38 l -5.88,-0.6 v 5.52 H 72.76 l 0.48,1.8 h 11.88 v 5.22 h 0.78 c 1.44,0 3.18,-0.84 3.18,-1.26 v -3.96 h 9.6 c 0.78,0 1.38,-0.3 1.5,-0.96 -1.74,-1.8 -4.68,-4.08 -4.68,-4.08 z m -9.66,28.26 v -1.98 h 12 v 4.98 H 82.36 l -4.56,-2.04 v 2.04 h -4.32 l 0.54,1.74 h 3.78 v 19.56 h 0.6 c 1.98,0 3.24,-1.02 3.24,-1.32 v -18.24 h 16.2 v 7.56 c -6,0.48 -10.98,0.78 -13.86,0.9 l 2.04,4.74 c 0.54,-0.12 1.14,-0.48 1.44,-1.26 10.2,-1.62 17.94,-3.06 23.7,-4.2 1.02,1.5 1.74,3.12 1.98,4.5 3.78,2.82 6.66,-5.58 -5.94,-10.38 l -0.72,0.54 c 1.32,1.08 2.7,2.58 3.9,4.2 l -8.76,0.66 v -7.26 h 17.22 v 13.44 c 0,0.9 -0.24,1.26 -1.38,1.26 -1.38,0 -7.56,-0.48 -7.56,-0.48 v 0.96 c 2.76,0.3 4.26,0.78 5.22,1.38 0.84,0.6 1.14,1.62 1.32,2.76 5.58,-0.6 6.3,-2.52 6.3,-5.4 v -13.2 c 1.2,-0.18 2.22,-0.66 2.58,-1.14 l -5.1,-3.78 -1.98,2.46 h -16.62 v -4.98 h 12.24 v 2.52 h 0.6 c 1.32,0 3.18,-1.02 3.24,-1.38 v -14.04 c 1.2,-0.24 2.16,-0.66 2.52,-1.14 l -4.8,-3.66 -2.16,2.4 H 86.2 l -4.14,-1.98 v 20.52 h 0.54 c 1.62,0 3.24,-0.84 3.24,-1.26 z m 12,-15.54 v 4.92 h -12 v -4.92 z m 3.78,0 h 12.24 v 4.92 h -12.24 z m -3.78,11.76 h -12 v -5.04 h 12 z m 3.78,0 v -5.04 h 12.24 v 5.04 z"
     id="text2"
     style="font-size:60px;font-family:'Noto Serif CJK TC';text-anchor:middle;fill:#c9362a"
     aria-label="萬" />
</svg>
