<?xml version="1.0" encoding="UTF-8" standalone="no"?>
<svg
   width="200"
   height="280"
   viewBox="0 0 200 280"
   version="1.1"
   id="svg7"
   xmlns="http://www.w3.org/2000/svg"
   xmlns:svg="http://www.w3.org/2000/svg">
  <defs
     id="defs7" />
  <rect
     x="5"
     y="5"
     width="190"
     height="270"
     rx="12"
     fill="#FFFFFF"
     stroke="#D8D8D8"
     stroke-width="3"
     id="rect1" />
  <path
     d="m 29.54,29.86 c -1.08,5.4 -3.18,10.47 -5.55,13.8 l 0.42,0.33 c 1.74,-1.65 3.27,-3.81 4.56,-6.33 h 1.74 v 19.65 h 0.33 c 1.02,0 1.65,-0.48 1.65,-0.63 V 37.66 h 4.98 c 0.42,0 0.69,-0.15 0.78,-0.48 -0.9,-0.93 -2.46,-2.13 -2.46,-2.13 l -1.32,1.71 h -5.28 c 0.81,-1.68 1.5,-3.54 2.07,-5.46 0.66,0 0.99,-0.27 1.11,-0.66 z m 11.67,-0.03 c -1.14,5.46 -3.42,10.5 -5.97,13.74 l 0.42,0.33 c 1.86,-1.62 3.54,-3.72 4.92,-6.24 h 4.02 v 16.56 c 0,0.45 -0.15,0.6 -0.72,0.6 -0.63,0 -3.81,-0.21 -3.81,-0.21 v 0.45 c 1.44,0.18 2.22,0.39 2.7,0.78 0.39,0.33 0.57,0.87 0.6,1.47 2.82,-0.27 3.21,-1.44 3.21,-3 V 37.66 h 4.74 c 0.42,0 0.69,-0.15 0.78,-0.48 -0.99,-0.96 -2.58,-2.22 -2.58,-2.22 l -1.44,1.8 h -7.02 c 0.87,-1.65 1.62,-3.48 2.22,-5.4 0.69,0.03 1.05,-0.27 1.11,-0.6 z"
     id="text1"
     style="font-size:30px;font-family:'Noto Serif CJK TC';text-anchor:middle;fill:#111111"
     aria-label="竹" />
  <path
     d="m 161.353,52.396 h 1.65 v -4.62 h 2.64 V 46.5 h -2.64 V 35.742 h -1.232 l -7.128,11 v 1.034 h 6.71 z m -5.764,-5.896 3.08,-4.774 2.684,-4.202 V 46.5 Z"
     id="text2"
     style="font-size:22px;font-family:'Noto Serif CJK TC';text-anchor:middle;fill:#111111"
     aria-label="4" />
  <line
     x1="85"
     y1="210"
     x2="105"
     y2="90"
     stroke="#075E46"
     stroke-width="4"
     stroke-linecap="round"
     id="line2" />
  <line
     x1="105"
     y1="150"
     x2="140"
     y2="125"
     stroke="#075E46"
     stroke-width="3"
     stroke-linecap="round"
     id="line3" />
  <line
     x1="95"
     y1="175"
     x2="65"
     y2="145"
     stroke="#075E46"
     stroke-width="3"
     stroke-linecap="round"
     id="line4" />
  <ellipse
     cx="125"
     cy="135"
     rx="7"
     ry="22"
     fill="none"
     stroke="#075E46"
     stroke-width="3"
     transform="rotate(-35 125 135)"
     id="ellipse4" />
  <ellipse
     cx="132"
     cy="122"
     rx="7"
     ry="22"
     fill="none"
     stroke="#075E46"
     stroke-width="3"
     transform="rotate(-35 132 122)"
     id="ellipse5" />
  <ellipse
     cx="76"
     cy="154"
     rx="7"
     ry="22"
     fill="none"
     stroke="#075E46"
     stroke-width="3"
     transform="rotate(35 76 154)"
     id="ellipse6" />
  <ellipse
     cx="68"
     cy="143"
     rx="7"
     ry="22"
     fill="none"
     stroke="#075E46"
     stroke-width="3"
     transform="rotate(35 68 143)"
     id="ellipse7" />
</svg>
