<?xml version="1.0" encoding="UTF-8" standalone="no"?>
<svg
   width="200"
   height="280"
   viewBox="0 0 200 280"
   version="1.1"
   id="svg1"
   xmlns="http://www.w3.org/2000/svg"
   xmlns:svg="http://www.w3.org/2000/svg">
  <defs
     id="defs1" />
  <rect
     x="5"
     y="5"
     width="190"
     height="270"
     rx="12"
     fill="#FFFFFF"
     stroke="#D8D8D8"
     stroke-width="3"
     id="rect1" />
  <path
     d="m 68.23,112 -0.81,0.81 c 3.42,2.25 7.38,6.39 8.37,9.99 0.45,0.36 0.99,0.54 1.44,0.63 -5.31,4.86 -11.7,9 -18.81,12.15 l 0.72,1.35 c 5.04,-1.62 9.72,-3.6 13.86,-5.85 l 0.18,0.45 h 12.15 v 10.26 h -10.8 l -6.93,-3.15 c -0.27,3.69 -1.17,9.9 -1.98,14.22 -1.35,0.36 -2.7,0.99 -3.6,1.62 l 6.21,4.95 2.79,-2.97 H 85.6 c -1.08,9.99 -2.97,16.65 -5.04,18.18 -0.81,0.54 -1.62,0.72 -3.15,0.72 -1.71,0 -7.29,-0.36 -10.53,-0.72 l -0.09,1.62 c 2.97,0.36 5.94,1.17 7.11,2.07 1.17,0.81 1.53,2.34 1.53,3.78 3.24,0 6.3,-0.72 8.55,-2.34 3.51,-2.7 6.12,-10.62 7.11,-22.77 1.8,-0.18 2.97,-0.54 3.6,-1.17 l -6.48,-5.49 -3.24,3.42 H 70.93 c 0.54,-2.79 1.17,-6.39 1.53,-9.27 h 12.87 v 3.42 h 1.08 c 2.16,0 4.41,-1.17 4.5,-1.53 v -13.86 c 1.44,-0.27 2.7,-0.9 3.33,-1.53 l -5.58,-5.22 -2.79,3.15 H 76.6 c 8.82,-5.58 15.39,-12.78 19.71,-20.88 2.16,0 3.06,-0.27 3.78,-1.08 l -6.48,-5.85 -4.05,3.69 H 64.54 l 0.81,2.61 h 23.94 c -2.07,4.41 -4.95,8.55 -8.46,12.42 -0.45,-2.88 -3.78,-6.48 -12.6,-7.83 z m 31.86,47.43 -0.81,1.17 c 3.78,1.89 8.19,4.41 12.51,7.2 -5.94,5.4 -13.5,9.81 -21.96,12.96 l 0.72,1.44 c 9.99,-2.7 18.45,-6.66 25.2,-11.7 5.31,3.6 10.17,7.47 12.87,10.62 5.76,1.89 7.02,-5.94 -8.64,-14.13 3.51,-3.33 6.48,-6.93 8.82,-10.89 2.16,-0.18 3.15,-0.36 3.87,-1.08 l -6.48,-5.85 -3.96,3.6 H 96.04 l 0.81,2.7 h 24.93 c -1.71,3.24 -3.96,6.3 -6.66,9.18 -4.14,-1.8 -9.09,-3.6 -15.03,-5.22 z m 3.33,-60.03 -1.53,0.81 c 3.6,10.53 9.81,19.17 17.82,25.74 l -2.88,2.88 h -9.18 l -6.57,-3.15 v 8.46 c 0,5.67 -0.9,11.79 -8.19,16.83 l 0.99,1.35 c 11.52,-4.77 12.78,-12.69 12.78,-18.27 v -2.61 h 10.89 v 12.42 c 0,3.33 0.72,4.77 5.31,4.77 h 3.96 c 7.47,0 9.36,-0.81 9.36,-3.06 0,-1.26 -0.72,-1.62 -2.34,-2.16 l -0.36,-0.09 h -0.72 c -0.45,0.09 -1.08,0.27 -1.44,0.27 -0.36,0.09 -0.81,0.09 -1.17,0.09 -0.63,0.09 -1.62,0 -2.7,0 h -2.97 c -1.17,0 -1.35,-0.27 -1.35,-1.08 v -10.44 c 1.44,-0.18 2.61,-0.45 3.24,-1.17 l -0.72,-0.63 c 3.42,2.25 7.11,4.23 10.98,5.85 0.9,-2.88 2.88,-4.68 5.49,-5.04 l 0.18,-0.81 c -6.93,-2.16 -13.68,-5.22 -19.62,-9.18 4.41,-1.98 9,-4.59 11.97,-6.75 1.89,0.72 2.7,0.54 3.42,-0.27 l -7.2,-5.13 c -2.16,2.97 -6.3,7.83 -9.9,10.98 -2.97,-1.98 -5.67,-4.32 -8.1,-6.75 4.77,-2.07 9.72,-4.86 12.87,-7.11 1.8,0.81 2.61,0.54 3.33,-0.27 l -7.02,-5.04 c -2.25,2.88 -6.66,7.65 -10.53,10.98 -3.42,-3.69 -6.21,-7.83 -8.1,-12.42 z"
     id="text1"
     style="font-size:90px;font-family:'Noto Serif CJK TC';text-anchor:middle;fill:#075e46"
     aria-label="發" />
</svg>
